<svg width="36" height="36" viewBox="0 0 36 36" fill="none" xmlns="http://www.w3.org/2000/svg">
<g clip-path="url(#clip0_10075_34230)">
<path d="M36 18C36 27.9411 27.9411 36 18 36C8.05894 36 0 27.9411 0 18C0 18.0042 18 0.00203906 18 0C27.9411 0 36 8.05894 36 18Z" fill="#0052B4"/>
<path d="M17.9512 18.0003H17.9993C17.9993 17.984 17.9993 17.9684 17.9993 17.9521C17.9833 17.9683 17.9673 17.9843 17.9512 18.0003Z" fill="#F0F0F0"/>
<path d="M18 9.39129C18 6.22406 18 4.14865 18 0H17.997C8.05725 0.00161719 0 8.05978 0 17.9999H9.39129V12.7116L14.6796 17.9999H17.9519C17.968 17.9839 17.984 17.9679 18.0001 17.9518C18.0001 16.7391 18.0001 15.657 18.0001 14.6797L12.7117 9.39129H18Z" fill="#F0F0F0"/>
<path d="M9.10637 2.34766C6.29113 3.95071 3.95071 6.29113 2.34766 9.10637V17.9999H7.04334V7.04341V7.04334H17.9999C17.9999 5.56234 17.9999 4.15145 17.9999 2.34766H9.10637Z" fill="#D80027"/>
<path d="M17.9993 15.7867L11.6041 9.39163H9.39062C9.39062 9.39156 9.39062 9.39163 9.39062 9.39163L17.9992 18.0002H17.9993C17.9993 18.0002 17.9993 16.4741 17.9993 15.7867Z" fill="#D80027"/>
<path d="M10.8554 21.1309L11.8433 23.1965L14.0741 22.6809L13.0751 24.7412L14.8691 26.1638L12.6355 26.6673L12.6417 28.9569L10.8554 27.5244L9.06923 28.9569L9.07548 26.6673L6.8418 26.1638L8.63582 24.7412L7.63668 22.6809L9.86762 23.1965L10.8554 21.1309Z" fill="#F0F0F0"/>
<path d="M26.9501 25.0439L27.4441 26.0768L28.5595 25.8189L28.06 26.8491L28.957 27.5604L27.8402 27.8121L27.8433 28.957L26.9501 28.2407L26.057 28.957L26.0601 27.8121L24.9434 27.5604L25.8403 26.8491L25.3408 25.8189L26.4562 26.0768L26.9501 25.0439Z" fill="#F0F0F0"/>
<path d="M22.3545 14.0869L22.8484 15.1198L23.9638 14.8619L23.4643 15.892L24.3613 16.6034L23.2445 16.8551L23.2476 17.9999L22.3545 17.2837L21.4614 17.9999L21.4644 16.8551L20.3477 16.6034L21.2446 15.892L20.7451 14.8619L21.8606 15.1198L22.3545 14.0869Z" fill="#F0F0F0"/>
<path d="M26.9501 7.82617L27.4441 8.85906L28.5595 8.60123L28.06 9.63137L28.9569 10.3427L27.8402 10.5944L27.8433 11.7393L26.9501 11.023L26.057 11.7393L26.0601 10.5944L24.9434 10.3427L25.8403 9.63137L25.3408 8.60123L26.4562 8.85906L26.9501 7.82617Z" fill="#F0F0F0"/>
<path d="M30.9639 12.5215L31.4578 13.5544L32.5732 13.2965L32.0737 14.3266L32.9707 15.038L31.8538 15.2898L31.8569 16.4345L30.9639 15.7183L30.0708 16.4345L30.0738 15.2898L28.957 15.038L29.854 14.3266L29.3545 13.2965L30.4699 13.5544L30.9639 12.5215Z" fill="#F0F0F0"/>
<path d="M28.0931 18L28.4815 19.1957H29.7389L28.7217 19.9348L29.1103 21.1305L28.0931 20.3915L27.0759 21.1305L27.4644 19.9348L26.4473 19.1957H27.7045L28.0931 18Z" fill="#F0F0F0"/>
</g>
<defs>
<clipPath id="clip0_10075_34230">
<rect width="36" height="36" fill="white"/>
</clipPath>
</defs>
</svg>
