<svg width="36" height="36" viewBox="0 0 36 36" fill="none" xmlns="http://www.w3.org/2000/svg">
<g clip-path="url(#clip0_10075_34246)">
<path d="M18 36C27.9411 36 36 27.9411 36 18C36 8.05887 27.9411 0 18 0C8.05887 0 0 8.05887 0 18C0 27.9411 8.05887 36 18 36Z" fill="#F0F0F0"/>
<path d="M36.0001 18.0001C36.0001 10.8638 31.8471 4.69763 25.8262 1.78613V34.2139C31.8471 31.3025 36.0001 25.1363 36.0001 18.0001Z" fill="#D80027"/>
<path d="M0 18.0001C0 25.1364 4.15301 31.3025 10.1739 34.214V1.78613C4.15301 4.69763 0 10.8638 0 18.0001Z" fill="#D80027"/>
<path d="M21.1296 20.3475L24.26 18.7823L22.6948 17.9997V16.4345L19.5643 17.9997L21.1296 14.8693H19.5643L17.9991 12.5215L16.4339 14.8693H14.8687L16.4339 17.9997L13.3034 16.4345V17.9997L11.7383 18.7823L14.8687 20.3475L14.0861 21.9128H17.2165V24.2606H18.7817V21.9128H21.9121L21.1296 20.3475Z" fill="#D80027"/>
</g>
<defs>
<clipPath id="clip0_10075_34246">
<rect width="36" height="36" fill="white"/>
</clipPath>
</defs>
</svg>
