<svg width="36" height="36" viewBox="0 0 36 36" fill="none" xmlns="http://www.w3.org/2000/svg">
<path d="M18 36C8.05887 36 -4.3454e-07 27.9411 0 18C4.3454e-07 8.05887 8.05887 -4.3454e-07 18 0C27.9411 4.3454e-07 36 8.05887 36 18C36 27.9411 27.9411 36 18 36Z" fill="#D90026"/>
<path d="M20.6657 11.2485L18.8964 11.0579L20.2029 10.0054L19.8836 8.53921L21.2228 9.39934L22.5293 8.34685L22.3388 10.1161L23.4548 10.8329L21.9886 11.1523L21.5748 12.7782L20.6657 11.2485Z" fill="#FFDB44"/>
<path d="M9.9 21.2062L5.5125 23.4L6.975 19.0125L4.05 16.0875H8.4375L9.9 11.7L12.0938 16.0875H15.75L12.825 19.0125L14.2875 23.4L9.9 21.2062Z" fill="#FFDB44"/>
<path d="M20.6657 24.7665L18.8964 24.957L20.2029 26.0095L19.8836 27.4757L21.2228 26.6156L22.5293 27.6681L22.3388 25.8988L23.4548 25.182L21.9886 24.8626L21.5748 23.2367L20.6657 24.7665Z" fill="#FFDB44"/>
<path d="M24.9364 16.0067L23.2957 15.3178L24.8488 14.6833L24.9625 13.187L25.9994 14.3944L27.5526 13.76L26.8636 15.4007L27.7277 16.4069L26.2314 16.2932L25.3696 17.7327L24.9364 16.0067Z" fill="#FFDB44"/>
<path d="M24.9364 21.0284L23.2957 21.7174L24.8488 22.3519L24.9625 23.8482L25.9994 22.6407L27.5526 23.2752L26.8636 21.6345L27.7277 20.6283L26.2314 20.742L25.3696 19.3025L24.9364 21.0284Z" fill="#FFDB44"/>
</svg>
