<svg width="36" height="36" viewBox="0 0 36 36" fill="none" xmlns="http://www.w3.org/2000/svg">
<circle cx="18" cy="18" r="18" fill="#0052B5"/>
<path d="M17.9083 10.6934L16.3206 11.4971L16.8433 9.90288L15.7769 8.84708L17.3685 8.83917L17.9942 7.19092L18.6949 8.83257L20.0212 8.82598L18.9654 9.89233L19.5039 11.4813L17.9083 10.6934Z" fill="#FFDB44"/>
<path d="M17.9083 25.6465L16.3206 24.8428L16.8433 26.4371L15.7769 27.4929L17.3685 27.5008L17.9942 29.149L18.6949 27.5074L20.0212 27.514L18.9654 26.4476L19.5039 24.8586L17.9083 25.6465Z" fill="#FFDB44"/>
<path d="M25.2829 18.1452L24.1665 16.7594L25.8346 16.939L26.6456 15.6764L26.9843 17.2316L28.7267 17.5008L27.2666 18.5275L27.5489 19.8235L26.2863 19.0126L24.8441 19.8697L25.2829 18.1452Z" fill="#FFDB44"/>
<path d="M23.3126 13.1942L21.5664 12.8517L22.9589 11.9159L22.7672 10.4276L24.0272 11.4001L25.5342 10.4851L25.0772 12.2105L26.1271 13.0209L24.6388 13.2126L24.0863 14.7967L23.3126 13.1942Z" fill="#FFDB44"/>
<path d="M23.336 23.1767L24.0946 21.567L24.662 23.1459L26.1521 23.3235L24.9013 24.3078L25.4206 25.9926L23.859 25.1281L22.8167 25.9484L22.9943 24.4583L21.5931 23.5357L23.336 23.1767Z" fill="#FFDB44"/>
<path d="M25.2829 18.1452L24.1665 16.7594L25.8346 16.939L26.6456 15.6764L26.9843 17.2316L28.7267 17.5008L27.2666 18.5275L27.5489 19.8235L26.2863 19.0126L24.8441 19.8697L25.2829 18.1452Z" fill="#FFDB44"/>
<path d="M10.7664 18.1452L11.8828 16.7594L10.2147 16.939L9.40373 15.6764L9.06497 17.2316L7.32263 17.5008L8.78268 18.5275L8.50038 19.8235L9.763 19.0126L11.2052 19.8697L10.7664 18.1452Z" fill="#FFDB44"/>
<path d="M12.7367 13.1942L14.4829 12.8517L13.0904 11.9159L13.2821 10.4276L12.0221 11.4001L10.5151 10.4851L10.9721 12.2105L9.92215 13.0209L11.4105 13.2126L11.963 14.7967L12.7367 13.1942Z" fill="#FFDB44"/>
<path d="M12.7133 23.1767L11.9547 21.567L11.3873 23.1459L9.89725 23.3235L11.148 24.3078L10.6287 25.9926L12.1903 25.1281L13.2326 25.9484L13.055 24.4583L14.4562 23.5357L12.7133 23.1767Z" fill="#FFDB44"/>
<path d="M10.7664 18.1452L11.8828 16.7594L10.2147 16.939L9.40373 15.6764L9.06497 17.2316L7.32263 17.5008L8.78268 18.5275L8.50038 19.8235L9.763 19.0126L11.2052 19.8697L10.7664 18.1452Z" fill="#FFDB44"/>
</svg>
