<svg width="36" height="36" viewBox="0 0 36 36" fill="none" xmlns="http://www.w3.org/2000/svg">
<path d="M36 18C36 27.9411 27.9411 36 18 36C8.05887 36 0 27.9411 0 18C0 8.05887 8.05887 0 18 0C27.9411 0 36 8.05887 36 18Z" fill="#0052B5"/>
<path d="M13.5 9.9V0.567079C14.233 0.378425 14.984 0.234778 15.75 0.139261C16.4871 0.0473475 17.238 0 18 0C18.762 0 19.5129 0.0473475 20.25 0.139261C21.016 0.234778 21.767 0.378425 22.5 0.567079V12.375L30.15 4.71913C30.9746 5.47397 32.1774 6.97961 32.85 7.875L27 13.5H35.4329C35.6216 14.233 35.7652 14.984 35.8607 15.75C35.9527 16.4871 36 17.238 36 18C36 18.762 35.9527 19.5129 35.8607 20.25C35.7652 21.016 35.6216 21.767 35.4329 22.5H25.65L32.4013 28.8C31.4337 30.0882 30.2973 31.2423 29.025 32.2295L22.5 25.65V35.4329C21.767 35.6216 21.016 35.7652 20.25 35.8607C19.5129 35.9527 18.762 36 18 36C17.238 36 16.4871 35.9527 15.75 35.8607C14.984 35.7652 14.233 35.6216 13.5 35.4329L13.5 23.85L6.075 31.4834C5.06803 30.5921 4.16164 29.5898 3.375 28.4956L9.9 22.5H0.567079C0.378425 21.767 0.234779 21.016 0.139262 20.25C0.0473479 19.5129 0 18.762 0 18C0 17.238 0.0473475 16.4871 0.139261 15.75C0.234778 14.984 0.378425 14.233 0.567079 13.5H10.125L3.6 7.19824C4.59869 5.869 5.77714 4.68252 7.09926 3.6749L13.5 9.9Z" fill="white"/>
<path d="M13.5 13.5L5.28522 5.25895C4.85083 5.69244 4.43849 6.14801 4.05 6.62382L11.25 13.5H13.5Z" fill="#D90026"/>
<path d="M22.5 13.5L30.7148 5.25895C31.1492 5.69244 31.5615 6.148 31.95 6.62381L24.75 13.5H22.5Z" fill="#D90026"/>
<path d="M22.5 22.6545L30.7148 30.8955C31.1492 30.462 31.5615 30.0065 31.95 29.5307L24.75 22.6545H22.5Z" fill="#D90026"/>
<path d="M13.5 22.6545L5.28522 30.8955C4.85083 30.462 4.43849 30.0065 4.05 29.5307L11.25 22.6545H13.5Z" fill="#D90026"/>
<path d="M0.139261 15.75C0.0473475 16.4871 0 17.238 0 18C0 18.762 0.0473479 19.5129 0.139262 20.25H15.75V35.8607C16.4871 35.9527 17.238 36 18 36C18.762 36 19.5129 35.9527 20.25 35.8607V20.25H35.8607C35.9527 19.5129 36 18.762 36 18C36 17.238 35.9527 16.4871 35.8607 15.75H20.25V0.139261C19.3693 0.00677989 18.9177 0 18 0C17.238 0 16.4871 0.0473475 15.75 0.139261V15.75H0.139261Z" fill="#D90026"/>
</svg>
