<svg width="37" height="37" viewBox="0 0 37 37" fill="none" xmlns="http://www.w3.org/2000/svg">
<path d="M18.6562 36.6562C28.5974 36.6562 36.6562 28.5974 36.6562 18.6562C36.6562 8.71513 28.5974 0.65625 18.6562 0.65625C8.71513 0.65625 0.65625 8.71513 0.65625 18.6562C0.65625 28.5974 8.71513 36.6562 18.6562 36.6562Z" fill="#F5F5F5"/>
<path d="M13.4963 19.6761C15.1763 20.8161 17.5163 20.3361 18.6563 18.6561C19.7963 16.9761 22.0763 16.4961 23.8163 17.6361C25.4363 18.7161 25.9163 20.8161 25.0163 22.4361C26.9963 19.0761 26.0963 14.6961 22.7363 12.4761C19.3163 10.1961 14.6963 11.0961 12.4163 14.5161C12.3563 14.6361 12.2963 14.7561 12.2363 14.8161C11.3963 16.5561 11.9363 18.5961 13.4963 19.6761Z" fill="#ED4C5C"/>
<path d="M24.8362 22.7961C24.8962 22.6761 24.9562 22.5561 25.0162 22.4961C24.9562 22.5561 24.8962 22.6761 24.8362 22.7961Z" fill="#003478"/>
<path d="M23.8163 17.6365C22.1363 16.4965 19.7963 16.9765 18.6563 18.6565C17.5163 20.3365 15.2363 20.8165 13.4963 19.6765C11.8763 18.5965 11.3963 16.4965 12.2963 14.8765C10.2563 18.2365 11.2163 22.6165 14.5763 24.8365C17.9963 27.1165 22.6163 26.2165 24.8963 22.7965C24.9563 22.6765 25.0163 22.5565 25.0763 22.4965C25.9163 20.7565 25.3763 18.7165 23.8163 17.6365Z" fill="#428BC1"/>
<path d="M4.13626 13.4363L8.27626 7.25631L7.85627 6.95631L7.43627 6.71631L3.29626 12.8963L3.71626 13.1363L4.13626 13.4363Z" fill="#3E4347"/>
<path d="M5.27614 14.2163L5.69614 14.4563L9.77614 8.27633L9.41614 8.03633L8.99614 7.73633L4.85614 13.9163L5.27614 14.2163Z" fill="#3E4347"/>
<path d="M10.4961 8.75635L6.41614 14.9363L6.83614 15.2363L7.25614 15.4763L11.3361 9.29635L10.9161 9.05635L10.4961 8.75635Z" fill="#3E4347"/>
<path d="M28.5561 24.9564L28.9761 25.2564L30.8961 22.3764L30.4761 22.0764L30.0561 21.8364L28.1361 24.7164L28.5561 24.9564Z" fill="#3E4347"/>
<path d="M33.1761 23.8765L31.2561 26.7565L31.6761 27.0565L32.0961 27.2965L34.0161 24.4165L33.5961 24.1765L33.1761 23.8765Z" fill="#3E4347"/>
<path d="M30.5361 26.2764L32.4561 23.3964L32.0361 23.0964L31.6161 22.8564L29.6961 25.7364L30.1161 25.9764L30.5361 26.2764Z" fill="#3E4347"/>
<path d="M28.3161 25.3762L27.8961 25.1362L25.9761 28.0162L26.3961 28.2562L26.8161 28.5562L28.7361 25.6762L28.3161 25.3762Z" fill="#3E4347"/>
<path d="M29.8161 26.3963L29.4561 26.1562L27.5361 29.0363L27.8961 29.2763L28.3161 29.5763L30.2361 26.6963L29.8161 26.3963Z" fill="#3E4347"/>
<path d="M30.9561 27.1763L29.0361 30.0563L29.4561 30.3563L29.8761 30.5963L31.7961 27.7163L31.3761 27.4163L30.9561 27.1763Z" fill="#3E4347"/>
<path d="M3.71614 24.1765L3.29614 24.4165L7.43614 30.5965L7.85614 30.3565L8.27614 30.0565L4.13614 23.8765L3.71614 24.1765Z" fill="#3E4347"/>
<path d="M7.49611 26.3963L7.07611 26.6963L8.99611 29.5763L9.41611 29.2763L9.77611 29.0363L7.85611 26.1562L7.49611 26.3963Z" fill="#3E4347"/>
<path d="M6.83614 22.0764L6.41614 22.3764L10.4961 28.5564L10.9161 28.2564L11.3361 28.0164L7.25614 21.8364L6.83614 22.0764Z" fill="#3E4347"/>
<path d="M4.85614 23.3964L6.77614 26.2764L7.19614 25.9764L7.61614 25.7364L5.69614 22.8564L5.27614 23.0964L4.85614 23.3964Z" fill="#3E4347"/>
<path d="M31.3761 9.89631L31.7961 9.59631L29.8761 6.71631L29.4561 6.95631L29.0361 7.25631L30.9561 10.1363L31.3761 9.89631Z" fill="#3E4347"/>
<path d="M28.3161 11.9363L28.7361 11.6363L26.8161 8.75635L26.3961 9.05635L25.9761 9.29635L27.8961 12.1763L28.3161 11.9363Z" fill="#3E4347"/>
<path d="M31.2561 10.5561L33.1761 13.4361L33.5961 13.1361L34.0161 12.8961L32.0961 10.0161L31.6761 10.2561L31.2561 10.5561Z" fill="#3E4347"/>
<path d="M32.0361 14.2163L32.4561 13.9163L28.3161 7.73633L27.8961 8.03633L27.5361 8.27633L31.6161 14.4563L32.0361 14.2163Z" fill="#3E4347"/>
<path d="M30.4761 15.2362L30.8961 14.9362L28.9761 12.0562L28.5561 12.3562L28.1361 12.5962L30.0561 15.4762L30.4761 15.2362Z" fill="#3E4347"/>
</svg>
