<svg width="36" height="36" viewBox="0 0 36 36" fill="none" xmlns="http://www.w3.org/2000/svg">
<path d="M18 36C8.05887 36 -1.22135e-06 27.9411 -7.86805e-07 18C-3.52265e-07 8.05887 8.05887 -1.22135e-06 18 -7.86805e-07C27.9411 -3.52265e-07 36 8.05887 36 18C36 27.9411 27.9411 36 18 36Z" fill="#0052B5"/>
<path d="M34.8666 11.7C32.3129 4.866 25.7247 -3.99608e-07 17.9999 -7.37267e-07C10.2752 -1.07493e-06 3.68695 4.866 1.13323 11.7L34.8666 11.7Z" fill="white"/>
<path d="M1.13336 24.3C3.68709 31.134 10.2753 36 18.0001 36C25.7248 36 32.313 31.134 34.8668 24.3L1.13336 24.3Z" fill="#D90026"/>
</svg>
